<?xml version="1.0" encoding="UTF-8" standalone="no"?>
<svg
   xmlns:dc="http://purl.org/dc/elements/1.1/"
   xmlns:cc="http://creativecommons.org/ns#"
   xmlns:rdf="http://www.w3.org/1999/02/22-rdf-syntax-ns#"
   xmlns:svg="http://www.w3.org/2000/svg"
   xmlns="http://www.w3.org/2000/svg"
   xmlns:sodipodi="http://sodipodi.sourceforge.net/DTD/sodipodi-0.dtd"
   xmlns:inkscape="http://www.inkscape.org/namespaces/inkscape"
   viewBox="0 0 100 100"
   version="1.1"
   id="svg3924"
   sodipodi:docname="human.svg"
   width="100"
   height="100"
   inkscape:version="0.92.3 (2405546, 2018-03-11)">
  <sodipodi:namedview
     pagecolor="#ffffff"
     bordercolor="#666666"
     borderopacity="1"
     objecttolerance="10"
     gridtolerance="10"
     guidetolerance="10"
     inkscape:pageopacity="0"
     inkscape:pageshadow="2"
     inkscape:window-width="1426"
     inkscape:window-height="767"
     id="namedview6"
     showgrid="false"
     inkscape:zoom="2.36"
     inkscape:cx="-27.330508"
     inkscape:cy="50"
     inkscape:window-x="2016"
     inkscape:window-y="166"
     inkscape:window-maximized="0"
     inkscape:current-layer="svg3924" />
  <metadata
     id="metadata3930">
    <rdf:RDF>
      <cc:Work
         rdf:about="">
        <dc:format>image/svg+xml</dc:format>
        <dc:type
           rdf:resource="http://purl.org/dc/dcmitype/StillImage" />
        <dc:title />
      </cc:Work>
    </rdf:RDF>
  </metadata>
  <defs
     id="defs3928">
    <marker
       inkscape:stockid="Arrow2Lstart"
       orient="auto"
       refY="0.0"
       refX="0.0"
       id="Arrow2Lstart"
       style="overflow:visible"
       inkscape:isstock="true">
      <path
         id="path847"
         style="fill-rule:evenodd;stroke-width:0.62500000;stroke-linejoin:round"
         d="M 8.7185878,4.0337352 L -2.2072895,0.016013256 L 8.7185884,-4.0017078 C 6.9730900,-1.6296469 6.9831476,1.6157441 8.7185878,4.0337352 z "
         transform="scale(1.1) translate(1,0)" />
    </marker>
    <marker
       inkscape:stockid="Arrow1Send"
       orient="auto"
       refY="0.0"
       refX="0.0"
       id="Arrow1Send"
       style="overflow:visible;"
       inkscape:isstock="true">
      <path
         id="path844"
         d="M 0.0,0.0 L 5.0,-5.0 L -12.5,0.0 L 5.0,5.0 L 0.0,0.0 z "
         style="fill-rule:evenodd;stroke:#000000;stroke-width:1.0pt;"
         transform="scale(0.2) rotate(180) translate(6,0)" />
    </marker>
    <marker
       inkscape:stockid="Arrow1Sstart"
       orient="auto"
       refY="0.0"
       refX="0.0"
       id="Arrow1Sstart"
       style="overflow:visible"
       inkscape:isstock="true">
      <path
         id="path841"
         d="M 0.0,0.0 L 5.0,-5.0 L -12.5,0.0 L 5.0,5.0 L 0.0,0.0 z "
         style="fill-rule:evenodd;stroke:#000000;stroke-width:1.0pt"
         transform="scale(0.2) translate(6,0)" />
    </marker>
    <marker
       inkscape:stockid="Arrow1Mend"
       orient="auto"
       refY="0.0"
       refX="0.0"
       id="Arrow1Mend"
       style="overflow:visible;"
       inkscape:isstock="true">
      <path
         id="path838"
         d="M 0.0,0.0 L 5.0,-5.0 L -12.5,0.0 L 5.0,5.0 L 0.0,0.0 z "
         style="fill-rule:evenodd;stroke:#000000;stroke-width:1.0pt;"
         transform="scale(0.4) rotate(180) translate(10,0)" />
    </marker>
    <marker
       inkscape:stockid="Arrow1Mstart"
       orient="auto"
       refY="0.0"
       refX="0.0"
       id="Arrow1Mstart"
       style="overflow:visible"
       inkscape:isstock="true">
      <path
         id="path835"
         d="M 0.0,0.0 L 5.0,-5.0 L -12.5,0.0 L 5.0,5.0 L 0.0,0.0 z "
         style="fill-rule:evenodd;stroke:#000000;stroke-width:1.0pt"
         transform="scale(0.4) translate(10,0)" />
    </marker>
    <marker
       inkscape:stockid="Arrow1Lend"
       orient="auto"
       refY="0.0"
       refX="0.0"
       id="Arrow1Lend"
       style="overflow:visible;"
       inkscape:isstock="true">
      <path
         id="path832"
         d="M 0.0,0.0 L 5.0,-5.0 L -12.5,0.0 L 5.0,5.0 L 0.0,0.0 z "
         style="fill-rule:evenodd;stroke:#000000;stroke-width:1.0pt;"
         transform="scale(0.8) rotate(180) translate(12.5,0)" />
    </marker>
    <marker
       inkscape:stockid="Arrow1Lstart"
       orient="auto"
       refY="0.0"
       refX="0.0"
       id="Arrow1Lstart"
       style="overflow:visible"
       inkscape:isstock="true">
      <path
         id="path829"
         d="M 0.0,0.0 L 5.0,-5.0 L -12.5,0.0 L 5.0,5.0 L 0.0,0.0 z "
         style="fill-rule:evenodd;stroke:#000000;stroke-width:1.0pt"
         transform="scale(0.8) translate(12.5,0)" />
    </marker>
  </defs>
  <ellipse
     style="fill:#d5e5ff;stroke:#000000"
     id="path25"
     cx="50.635593"
     cy="49.576271"
     rx="44.279659"
     ry="44.915253" />
  <path
     d="m 51.271187,12.441484 c -8.49285,0 -16.647916,3.008092 -22.438498,8.977641 -5.404541,5.596451 -8.444595,13.035068 -8.444595,20.8701 v 1.515707 c -3.860387,2.984773 -3.860387,7.835032 -3.860387,9.327419 0,4.850258 3.812132,8.884366 8.444596,10.376755 3.860386,14.550772 16.26188,23.201952 26.298884,23.201952 10.037006,0 22.438492,-8.65118 26.298892,-23.201952 4.63246,-1.119293 8.44459,-5.176719 8.44459,-10.026978 0,-1.865483 0,-6.342645 -3.86038,-9.327419 v -1.515704 c 0,-7.835034 -3.04006,-15.273651 -8.44461,-20.870101 -5.790576,-6.342646 -13.945646,-9.32742 -22.438492,-9.32742 z M 39.690028,31.096322 c 13.511356,16.789355 25.478555,-4.127383 34.743471,17.139134 0,0 4.63248,1.142609 3.8604,5.246672 -0.77208,5.223356 -6.996956,4.080747 -6.996956,4.080747 l -0.72382,2.681633 c -2.70227,12.68529 -13.12532,19.3544 -19.301936,19.3544 -6.176617,0 -16.599661,-6.66911 -19.301933,-19.3544 l -0.361912,-2.681633 c 0,0 -6.99695,0.396416 -6.99695,-4.080747 0,-4.850258 3.860386,-5.246672 3.860386,-5.246672 l 3.498476,1.515705 c 0,-7.835032 3.088309,-16.789355 7.720774,-18.654839 z m 1.930192,14.923871 c -3.198048,0 -5.790579,2.505617 -5.790579,5.596452 0,3.090835 2.592531,5.596451 5.790579,5.596451 3.19805,0 5.790581,-2.505616 5.790581,-5.596451 0,-3.090835 -2.592531,-5.596452 -5.790581,-5.596452 z m 19.301933,0 c -3.19805,0 -5.790579,2.505617 -5.790579,5.596452 0,3.090835 2.592529,5.596451 5.790579,5.596451 3.19805,0 5.79058,-2.505616 5.79058,-5.596451 0,-3.090835 -2.59253,-5.596452 -5.79058,-5.596452 z"
     id="path3922"
     inkscape:connector-curvature="0"
     style="fill:#000000" />
</svg>
